/* XPM */
static char * calendar_xpm[] = {
"64 64 6 1",
" 	c None",
".	c #FFFFFF",
"+	c #000000",
"@	c #800000",
"#	c #808080",
"$	c #FF0000",
"                                                                ",
"                                                                ",
"                                                                ",
"                                                                ",
"                                                                ",
"                                                                ",
"                                                                ",
"                                                                ",
"                                                                ",
"      ++++++++++++++++++++++++++++++++++++++++++++++++++++      ",
"      ++++++++++++++++++++++++++++++++++++++++++++++++++++      ",
"      ++@@@@@@@@@@@@@@@@@@@@@@@@@@@@@@@@@@@@@@@@@@@@@@++@@++    ",
"      ++@@@@@@@@@@@@@@@@@@@@@@@@@@@@@@@@@@@@@@@@@@@@@@++@@++    ",
"      ++@@@@@@@@@@@@@@@@@@@@@@@@@@@@@@@@@@@@@@@@@@@@@@++++@@    ",
"      ++@@@@@@@@@@@@@@@@@@@@@@@@@@@@@@@@@@@@@@@@@@@@@@++++@@    ",
"      ++@@@@@@@@@@@@@@@@@@@@@@@@@@@@@@@@@@@@@@@@@@@@@@++@@++    ",
"      ++@@@@@@@@@@@@@@@@@@@@@@@@@@@@@@@@@@@@@@@@@@@@@@++@@++    ",
"      ++@@@@@@@@@@@@@@@@@@@@@@@@@@@@@@@@@@@@@@@@@@@@@@++++@@    ",
"      ++@@@@@@@@@@@@@@@@@@@@@@@@@@@@@@@@@@@@@@@@@@@@@@++++@@    ",
"      ++@@@@@@@@@@@@@@@@@@@@@@@@@@@@@@@@@@@@@@@@@@@@@@++@@++    ",
"      ++@@@@@@@@@@@@@@@@@@@@@@@@@@@@@@@@@@@@@@@@@@@@@@++@@++    ",
"      ++..............................................++##@@    ",
"      ++..............................................++##@@    ",
"      ++..............................................++####    ",
"      ++..............................................++####    ",
"      ++..............................................++####    ",
"      ++..............................................++####    ",
"      ++..............................................++####    ",
"      ++..............................................++####    ",
"      ++..............................................++####    ",
"      ++..............................................++####    ",
"      ++..............................................++####    ",
"      ++..............................................++####    ",
"      ++..............................................++####    ",
"      ++..............................................++####    ",
"      ++..............................................++####    ",
"      ++..............................................++####    ",
"      ++..............................................++####    ",
"      ++..............................................++####    ",
"      ++..............................................++####    ",
"      ++..............................................++####    ",
"      ++..............................................++####    ",
"      ++..............................................++####    ",
"      ++..............................................++####    ",
"      ++..............................................++####    ",
"      ++..............................................++####    ",
"      ++..............................................++####    ",
"      ++..............................................++####    ",
"      ++..............................................++####    ",
"      ++..............................................++####    ",
"      ++..............................................++####    ",
"      ++..............................................++####    ",
"      ++..............................................++####    ",
"      ++++++++++++++++++++++++++++++++++++++++++++++++++####    ",
"      ++++++++++++++++++++++++++++++++++++++++++++++++++####    ",
"        ####################################################    ",
"        ####################################################    ",
"        ####################################################    ",
"          ##################################################    ",
"                                                                ",
"                                                                ",
"                                                                ",
"                                                                ",
"                                                                "};
