/* XPM */
static char * digits_xpm[] = {
"120 18 2 1",
" 	c #FFFFFF",
".	c #FF0000",
"  ......        ....      ......      ......          ....  ..........    ......    ..........    ......      ......    ",
"  ......        ....      ......      ......          ....  ..........    ......    ..........    ......      ......    ",
"..........    ......    ..........  ..........      ......  ..........  ..........  ..........  ..........  ..........  ",
"..........    ......    ..........  ..........      ......  ..........  ..........  ..........  ..........  ..........  ",
"....  ....    ......    ....  ....  ....  ....    ........  ....        ....  ....        ....  ....  ....  ....  ....  ",
"....  ....    ......    ....  ....  ....  ....    ........  ....        ....  ....        ....  ....  ....  ....  ....  ",
"....  ....      ....          ....      ......  ....  ....  ........    ....            ......  ..........  ..........  ",
"....  ....      ....          ....      ......  ....  ....  ........    ....            ......  ..........  ..........  ",
"....  ....      ....        ......      ....    ....  ....  ..........  ........        ....      ......      ........  ",
"....  ....      ....        ......      ....    ....  ....  ..........  ........        ....      ......      ........  ",
"....  ....      ....      ......        ......  ..........        ....  ..........    ....      ..........        ....  ",
"....  ....      ....      ......        ......  ..........        ....  ..........    ....      ..........        ....  ",
"....  ....      ....    ......      ....  ....  ..........  ....  ....  ....  ....    ....      ....  ....  ....  ....  ",
"....  ....      ....    ......      ....  ....  ..........  ....  ....  ....  ....    ....      ....  ....  ....  ....  ",
"..........    ........  ..........  ..........        ....  ..........  ..........  ....        ..........  ..........  ",
"..........    ........  ..........  ..........        ....  ..........  ..........  ....        ..........  ..........  ",
"  ......      ........  ..........    ......          ....    ......      ......    ....          ......      ......    ",
"  ......      ........  ..........    ......          ....    ......      ......    ....          ......      ......    "};
